<svg xmlns="http://www.w3.org/2000/svg" viewBox="0 0 20 20" shape-rendering="crispEdges" role="img" aria-label="Pollen">
  <title>Pollen</title>
  <g fill="#8B5A1B">
    <rect x="7" y="0" width="6" height="1"/>
    <rect x="5" y="1" width="2" height="1"/>
    <rect x="13" y="1" width="2" height="1"/>
    <rect x="4" y="2" width="1" height="1"/>
    <rect x="15" y="2" width="1" height="1"/>
    <rect x="3" y="3" width="1" height="1"/>
    <rect x="16" y="3" width="1" height="1"/>
    <rect x="2" y="4" width="1" height="9"/>
    <rect x="17" y="4" width="1" height="9"/>
    <rect x="3" y="13" width="1" height="1"/>
    <rect x="16" y="13" width="1" height="1"/>
    <rect x="4" y="14" width="1" height="1"/>
    <rect x="15" y="14" width="1" height="1"/>
    <rect x="5" y="15" width="2" height="1"/>
    <rect x="13" y="15" width="2" height="1"/>
    <rect x="7" y="16" width="6" height="1"/>
  </g>
  <g fill="#FFC93C">
    <rect x="7" y="1" width="6" height="1"/>
    <rect x="5" y="2" width="10" height="1"/>
    <rect x="4" y="3" width="12" height="1"/>
    <rect x="3" y="4" width="14" height="1"/>
    <rect x="3" y="5" width="14" height="1"/>
    <rect x="3" y="6" width="14" height="1"/>
    <rect x="3" y="7" width="14" height="1"/>
    <rect x="3" y="8" width="14" height="1"/>
    <rect x="3" y="9" width="14" height="1"/>
    <rect x="3" y="10" width="14" height="1"/>
    <rect x="3" y="11" width="14" height="1"/>
    <rect x="3" y="12" width="14" height="1"/>
    <rect x="4" y="13" width="12" height="1"/>
    <rect x="5" y="14" width="10" height="1"/>
    <rect x="7" y="15" width="6" height="1"/>
  </g>
  <g fill="#1A1A1A">
    <rect x="6" y="4" width="2" height="2"/>
    <rect x="12" y="4" width="2" height="2"/>
    <rect x="8" y="8" width="4" height="1"/>
  </g>
  <g fill="#6A3E12">
    <rect x="8" y="10" width="4" height="2"/>
  </g>
</svg>
